<svg width="259" height="207" xmlns="http://www.w3.org/2000/svg" xmlns:xlink="http://www.w3.org/1999/xlink" xml:space="preserve" overflow="hidden"><defs><clipPath id="clip0"><rect x="2605" y="536" width="259" height="207"/></clipPath></defs><g clip-path="url(#clip0)" transform="translate(-2605 -536)"><path d="M73.2337 0 249 0 249 197 0 197 0 57.94 73.2337 57.94Z" fill="#ACD7F6" fill-rule="evenodd" transform="matrix(1 0 0 -1 2612 737)"/><rect x="0" y="0" width="73.9999" height="57.9997" fill="#051C2C" transform="matrix(1 0 0 -1 2605 743)"/><path d="M2.09941-2.72193 126.119 92.9341C127.623 94.0936 127.901 96.2522 126.742 97.7554 125.582 99.2587 123.424 99.5374 121.92 98.378L-2.09941 2.72193C-3.60269 1.56245-3.8814-0.596133-2.72193-2.09941-1.56245-3.60269 0.596133-3.8814 2.09941-2.72193ZM128.788 81.9691 142.166 109.652 111.993 103.745Z" fill="#1E4B5A" transform="matrix(1 0 0 -1 2693.5 674.152)"/></g></svg>