<svg width="261" height="233" xmlns="http://www.w3.org/2000/svg" xmlns:xlink="http://www.w3.org/1999/xlink" xml:space="preserve" overflow="hidden"><defs><clipPath id="clip0"><rect x="539" y="540" width="261" height="233"/></clipPath></defs><g clip-path="url(#clip0)" transform="translate(-539 -540)"><path d="M712.943 611.947 669.471 540 626 611.947 712.943 611.947" fill="#051C2C" fill-rule="evenodd"/><path d="M755.902 688.908 712.402 616 625.597 616 582 688.908 755.902 688.908" fill="#ACD7F6" fill-rule="evenodd"/><path d="M756.402 693 582.5 693 539 765.908 799.902 765.908 756.402 693" fill="#ACD7F6" fill-rule="evenodd"/><path d="M672.938 625.5 672.938 721.505C672.938 723.404 671.399 724.943 669.5 724.943 667.602 724.943 666.063 723.404 666.063 721.505L666.063 625.5C666.063 623.602 667.602 622.063 669.5 622.063 671.399 622.063 672.938 623.602 672.938 625.5ZM683.25 716.922 669.5 744.422 655.75 716.922Z" fill="#1E4B5A"/></g></svg>