<svg width="241" height="196" xmlns="http://www.w3.org/2000/svg" xmlns:xlink="http://www.w3.org/1999/xlink" xml:space="preserve" overflow="hidden"><defs><clipPath id="clip0"><rect x="1581" y="540" width="241" height="196"/></clipPath></defs><g clip-path="url(#clip0)" transform="translate(-1581 -540)"><rect x="1581" y="540" width="52.0002" height="44" fill="#051C2C"/><rect x="1644" y="540" width="51.9999" height="44" fill="#051C2C"/><rect x="1706" y="540" width="52.9999" height="44" fill="#051C2C"/><rect x="1769" y="540" width="52.9999" height="44" fill="#051C2C"/><rect x="1581" y="590" width="52.0002" height="45.0001" fill="#051C2C"/><path d="M1742 590 1759 590 1759 635 1742 635Z" fill="#051C2C" fill-rule="evenodd"/><rect x="1769" y="590" width="52.9999" height="45.0001" fill="#051C2C"/><rect x="1581" y="641" width="52.0002" height="44" fill="#051C2C"/><path d="M1644 671 1696 671 1696 685 1644 685Z" fill="#051C2C" fill-rule="evenodd"/><rect x="1769" y="641" width="52.9999" height="44" fill="#051C2C"/><rect x="1644" y="692" width="51.9999" height="44" fill="#051C2C"/><rect x="1706" y="692" width="52.9999" height="44" fill="#051C2C"/><rect x="1581" y="692" width="52.0002" height="44" fill="#051C2C"/><rect x="1769" y="692" width="52.9999" height="44" fill="#051C2C"/><path d="M1742 641.226 1759 641 1759 685 1706 685 1706.27 670.666 1742 670.891 1742 641.226Z" fill="#051C2C" fill-rule="evenodd"/><rect x="1644" y="590" width="88.9996" height="75.0003" fill="#ACD7F6"/></g></svg>